<?xml version="1.0" encoding="UTF-8" standalone="no"?>
<!DOCTYPE svg PUBLIC "-//W3C//DTD SVG 1.1//EN" "http://www.w3.org/Graphics/SVG/1.1/DTD/svg11.dtd">
<svg width="100%" height="100%" viewBox="0 0 1989 2703" version="1.1" xmlns="http://www.w3.org/2000/svg" xmlns:xlink="http://www.w3.org/1999/xlink" xml:space="preserve" xmlns:serif="http://www.serif.com/" style="fill-rule:evenodd;clip-rule:evenodd;stroke-linecap:round;stroke-linejoin:round;stroke-miterlimit:1.5;">
    <g id="Artboard1" transform="matrix(1.30633,0,0,1.08628,-2105.48,-663.083)">
        <rect x="1611.75" y="610.419" width="1522.26" height="2487.71" style="fill:none;"/>
        <g transform="matrix(0.756446,0,0,0.909687,1262.41,-80.1502)">
            <g id="Layer4">
                <path d="M1470.11,771.218C1250.25,771.218 1046.58,869.583 881.745,1037.38C639.673,1283.79 481.382,1681.1 481.382,2129.38C481.382,2577.66 639.673,2974.97 881.745,3221.38C1046.58,3389.18 1250.25,3487.54 1470.11,3487.54C1689.98,3487.54 1893.65,3389.18 2058.48,3221.38C2300.56,2974.97 2458.85,2577.66 2458.85,2129.38C2458.85,1681.1 2300.56,1283.79 2058.48,1037.38C1893.65,869.583 1689.98,771.218 1470.11,771.218ZM1470.11,845.963C1670.3,845.963 1855.08,936.982 2005.16,1089.76C2235.47,1324.19 2384.1,1702.9 2384.1,2129.38C2384.1,2555.86 2235.47,2934.57 2005.16,3169C1855.08,3321.78 1670.3,3412.8 1470.11,3412.8C1269.92,3412.8 1085.15,3321.78 935.066,3169C704.764,2934.57 556.127,2555.86 556.127,2129.38C556.127,1702.9 704.764,1324.19 935.066,1089.76C1085.15,936.982 1269.92,845.963 1470.11,845.963Z"/>
            </g>
        </g>
        <g id="Layer1" transform="matrix(0.765502,0,0,0.920577,1260.21,85.6024)">
            <path d="M2031.41,2460.87C2031.41,2460.87 1877.12,2452.08 1849.74,2465.07C1822.36,2478.05 1801.65,2494.55 1750.05,2593.89C1698.45,2693.24 1672.47,2713.95 1633.15,2765.9C1593.84,2817.86 1533.46,2827.69 1487.83,2845.59C1442.19,2863.49 1363.91,2900 1307.74,2906.32C1251.58,2912.64 893.893,2889.91 893.893,2889.91L1020.89,2572.93C1020.89,2572.93 1128.06,2349.67 1228.41,2250.59C1231.64,2247.4 1231.36,2256.92 1248.45,2243.08C1297.11,2203.67 1372.17,2104.66 1377.58,2080.29C1386.03,2042.24 1298.06,1938.78 1278.51,1905.84C1260.36,1875.27 1081.69,1914.76 1052.04,1886.22C1024.8,1859.98 1020.29,1818.61 1023.78,1803.54C1031.88,1768.5 975.099,1741.83 975.099,1724.69C975.099,1707.55 981.922,1709.54 990.836,1702C999.749,1694.46 968.243,1673.27 964.129,1657.5C960.016,1641.73 977.978,1605.44 981.27,1595.8C986.102,1581.63 922.142,1533.55 933.962,1514.89C941.048,1503.71 1017.52,1428.22 1021.1,1392.04C1021.61,1386.9 1029.16,1355.15 1028.05,1337.21C1026.32,1309.38 1023.22,1307.48 1023.83,1258.73C1024.09,1238.15 1035.43,1226.25 1021.04,1239.27C1006.64,1252.3 1002.52,1272.18 1008.01,1250.93C1013.49,1229.67 989.497,1147.4 995.668,1128.89C1001.84,1110.38 1019.66,1114.49 1025.15,1098.72C1030.63,1082.95 1018.94,1072.84 1028.36,1049.7C1037.79,1026.56 1150.92,954.571 1192.91,940.001C1234.91,925.432 1320.61,914.291 1348.03,909.149C1375.46,904.006 1376.32,895.436 1391.74,892.865C1407.17,890.294 1401.17,899.721 1428.59,900.578C1456.02,901.435 1467.16,892.008 1492.87,894.579C1518.58,897.15 1536.79,886.678 1554.53,884.378C1571.67,882.157 1578.45,887.489 1597.86,890.91C1610.61,893.157 1615.58,899.255 1634.28,902.292C1670.45,908.167 1673.7,901.435 1696.84,908.292C1719.98,915.148 1748.26,934.859 1761.98,948.572C1775.69,962.284 1840.1,1042.85 1870.82,1067.7C1879.99,1075.12 1878.01,1061.2 1920.52,1071.98C1953.3,1080.29 1993.37,1144.83 1991.66,1173.11C1989.94,1201.39 1982.23,1169.68 2013.08,1192.82C2043.94,1215.96 2047.36,1253.67 2043.08,1296.52C2038.79,1339.37 2040.95,1355.67 2050.52,1331.07C2058.21,1311.26 2060.54,1241.68 2069.04,1292.32C2082.15,1370.46 2098.55,1381.68 2101.95,1404.71C2105.11,1426.18 2092.01,1476.54 2102.3,1464.54C2112.58,1452.54 2115.07,1412.22 2117.64,1431.93C2120.21,1451.64 2142.6,1514.87 2153.83,1525.58C2154.99,1526.69 2161.75,1526.97 2141.47,1573.74C2121.15,1620.62 2098.82,1639.79 2118.01,1646.67C2139.55,1654.4 2134.75,1661.18 2158.75,1640.62C2182.74,1620.05 2176.39,1630.35 2177.24,1644.06C2178.1,1657.77 2204.75,1631.09 2212.47,1622.52C2220.18,1613.95 2202.79,1731.02 2092.79,1707.89C2063.49,1701.74 2072.06,1729.13 2061.78,1757.41C2051.49,1785.7 1989.09,1787.6 1973.66,1794.45C1958.23,1801.31 1973.66,1833.88 1982.23,1843.3C1990.8,1852.73 2015.97,1869.49 2036.54,1868.63C2057.11,1867.78 1978.04,1903.7 1941.09,1861.3C1913.83,1830.02 1913.26,1779.38 1886.73,1771.6C1886.04,1771.4 1907.63,1842.78 1893.91,1868.49C1880.2,1894.2 1864.48,1893.51 1847.87,1897.62C1845.11,1898.3 1839.11,1920.06 1851.02,1925.44C1873.61,1935.63 1886.88,1947.97 1907.06,1955.43C1922.06,1960.98 1865.38,1969.67 1841.05,1958.88C1820.99,1949.98 1803.5,1904.85 1789.57,1890.61C1776.82,1877.58 1769.7,1884.19 1751.16,1886.79C1730.47,1889.68 1725.56,1898.99 1727.27,1914.41C1728.98,1929.84 1746.9,1950.33 1790.26,1983.86C1842.16,2023.99 1886.67,2058.78 1918.35,2093.95C1933.53,2110.8 1979.66,2144.12 2001.08,2159.55C2022.51,2174.97 2127.92,2328.38 2133.07,2350.66C2138.21,2372.94 2031.41,2460.87 2031.41,2460.87Z" style="stroke:black;stroke-width:1px;"/>
        </g>
        <g id="Layer2" transform="matrix(0.707841,0,0,0.920577,1317.34,85.6024)">
            <g transform="matrix(1,0,0,1,-1.41013,11.9983)">
                <path d="M1027.18,1349.75C1027.18,1349.75 1616.75,1352.29 1641.86,1360.66C1666.97,1369.03 1658.6,1404.18 1665.29,1427.62C1671.99,1451.05 1643.7,1430.63 1643.7,1430.63C1638.85,1427.69 1645.97,1387.01 1631.41,1379.97C1616.85,1372.93 1031.97,1375.01 1031.97,1375.01" style="fill:rgb(101,198,99);stroke:black;stroke-width:2.91px;"/>
            </g>
            <g transform="matrix(1.02316,0,0,1.06801,-7.56107,-92.2111)">
                <path d="M976.386,1296.68C976.208,1291.59 996.895,1285.16 998.392,1295.07C1003.23,1327.07 1018.51,1425.01 1021.91,1444.87C1022.94,1450.92 1001.2,1455.4 999.091,1449.38C998.622,1448.03 976.386,1297.65 976.386,1296.68Z" style="fill:rgb(101,198,99);stroke:black;stroke-width:2.74px;"/>
            </g>
        </g>
    </g>
</svg>
